<svg xmlns="http://www.w3.org/2000/svg" viewBox="0 0 1200 675" role="img" aria-label="Editorial illustration of stacked moving boxes">
  <defs>
    <pattern id="dots" width="26" height="26" patternUnits="userSpaceOnUse">
      <circle cx="2" cy="2" r="2" fill="#EAE8E1"/>
    </pattern>
  </defs>
  <rect width="1200" height="675" fill="#F7F6F3"/>
  <rect width="1200" height="675" fill="url(#dots)"/>
  <circle cx="930" cy="300" r="250" fill="#FBF3DB"/>
  <circle cx="958" cy="326" r="250" fill="none" stroke="#F0E0AE" stroke-width="7" opacity="0.7"/>
  <circle cx="1092" cy="560" r="46" fill="#F0E0AE" opacity="0.7"/>
  <g stroke="#2F3437" stroke-width="9" fill="none" stroke-linecap="round" stroke-linejoin="round">
    <rect x="452" y="404" width="300" height="176" rx="12"/>
    <path d="M452 450 H752"/>
    <path d="M602 404 V450"/>
    <rect x="506" y="244" width="206" height="160" rx="12"/>
    <path d="M506 296 H712"/>
    <path d="M609 244 V296"/>
  </g>
  <circle cx="668" cy="288" r="27" fill="#DC3626"/>
  <path d="M655 288 L665 299 L683 277" fill="none" stroke="#F7F6F3" stroke-width="7" stroke-linecap="round" stroke-linejoin="round"/>
  <circle cx="92" cy="90" r="7" fill="#DC3626"/>
  <text x="112" y="100" font-family="Georgia,'Times New Roman',serif" font-size="34" fill="#2F3437">FlyerBoard</text>
  <text x="82" y="598" font-family="'SF Mono',ui-monospace,monospace" font-size="22" letter-spacing="5" fill="#787774">MOVING SALE</text>
  <line x1="82" y1="620" x2="264" y2="620" stroke="#DDDBD4" stroke-width="2"/>
</svg>
