<svg xmlns="http://www.w3.org/2000/svg" viewBox="0 0 1200 675" role="img" aria-label="Editorial illustration of moving boxes with a single tag linking them">
  <defs>
    <pattern id="dots" width="26" height="26" patternUnits="userSpaceOnUse">
      <circle cx="2" cy="2" r="2" fill="#EAE8E1"/>
    </pattern>
  </defs>
  <rect width="1200" height="675" fill="#F7F6F3"/>
  <rect width="1200" height="675" fill="url(#dots)"/>
  <circle cx="930" cy="300" r="250" fill="#E6E4F5"/>
  <circle cx="958" cy="326" r="250" fill="none" stroke="#D3CEEF" stroke-width="7" opacity="0.7"/>
  <circle cx="1092" cy="560" r="46" fill="#D3CEEF" opacity="0.7"/>
  <g stroke="#2F3437" stroke-width="7" fill="none" stroke-linecap="round" stroke-linejoin="round" opacity="0.9">
    <path d="M566 336 Q660 300 724 300"/>
    <path d="M566 440 Q660 360 724 312"/>
    <path d="M680 392 Q706 350 726 320"/>
  </g>
  <g stroke="#2F3437" stroke-width="9" fill="none" stroke-linecap="round" stroke-linejoin="round">
    <rect x="470" y="292" width="96" height="92" rx="10"/>
    <path d="M470 322 H566"/>
    <rect x="470" y="398" width="96" height="92" rx="10"/>
    <path d="M470 428 H566"/>
    <rect x="584" y="346" width="96" height="92" rx="10"/>
    <path d="M584 376 H680"/>
  </g>
  <g transform="translate(712 250) rotate(14)">
    <rect x="0" y="0" width="170" height="104" rx="20" fill="#DC3626"/>
    <circle cx="30" cy="52" r="11" fill="#F7F6F3"/>
    <line x1="66" y1="40" x2="140" y2="40" stroke="#F7F6F3" stroke-width="7" stroke-linecap="round"/>
    <line x1="66" y1="66" x2="118" y2="66" stroke="#F7F6F3" stroke-width="7" stroke-linecap="round"/>
  </g>
  <circle cx="92" cy="90" r="7" fill="#DC3626"/>
  <text x="112" y="100" font-family="Georgia,'Times New Roman',serif" font-size="34" fill="#2F3437">FlyerBoard</text>
  <text x="82" y="598" font-family="'SF Mono',ui-monospace,monospace" font-size="22" letter-spacing="5" fill="#787774">SELLING</text>
  <line x1="82" y1="620" x2="210" y2="620" stroke="#DDDBD4" stroke-width="2"/>
</svg>
