<svg xmlns="http://www.w3.org/2000/svg" viewBox="0 0 1200 675" role="img" aria-label="Editorial illustration of a leaf beside a price tag">
  <defs>
    <pattern id="dots" width="26" height="26" patternUnits="userSpaceOnUse">
      <circle cx="2" cy="2" r="2" fill="#EAE8E1"/>
    </pattern>
  </defs>
  <rect width="1200" height="675" fill="#F7F6F3"/>
  <rect width="1200" height="675" fill="url(#dots)"/>
  <circle cx="930" cy="300" r="250" fill="#E4F0DE"/>
  <circle cx="958" cy="326" r="250" fill="none" stroke="#CBE6BE" stroke-width="7" opacity="0.7"/>
  <circle cx="1092" cy="560" r="46" fill="#CBE6BE" opacity="0.7"/>
  <g stroke="#2F3437" stroke-width="9" fill="none" stroke-linecap="round" stroke-linejoin="round">
    <path d="M556 236 C650 292 650 420 556 480 C462 420 462 292 556 236 Z"/>
    <path d="M556 236 C556 320 556 404 556 480"/>
    <path d="M556 320 C588 320 612 336 632 360"/>
    <path d="M556 388 C524 388 500 404 480 428"/>
  </g>
  <path d="M556 480 C566 520 584 540 612 552" fill="none" stroke="#2F3437" stroke-width="7" stroke-linecap="round"/>
  <g transform="translate(596 512) rotate(20)">
    <rect x="0" y="0" width="132" height="88" rx="16" fill="#DC3626"/>
    <circle cx="26" cy="44" r="10" fill="#F7F6F3"/>
    <text x="80" y="62" font-family="Georgia,'Times New Roman',serif" font-size="52" fill="#F7F6F3" text-anchor="middle">$</text>
  </g>
  <circle cx="92" cy="90" r="7" fill="#DC3626"/>
  <text x="112" y="100" font-family="Georgia,'Times New Roman',serif" font-size="34" fill="#2F3437">FlyerBoard</text>
  <text x="82" y="598" font-family="'SF Mono',ui-monospace,monospace" font-size="22" letter-spacing="5" fill="#787774">SUSTAINABILITY</text>
  <line x1="82" y1="620" x2="342" y2="620" stroke="#DDDBD4" stroke-width="2"/>
</svg>
