<svg xmlns="http://www.w3.org/2000/svg" viewBox="0 0 1200 675" role="img" aria-label="Editorial illustration of a price tag">
  <defs>
    <pattern id="dots" width="26" height="26" patternUnits="userSpaceOnUse">
      <circle cx="2" cy="2" r="2" fill="#EAE8E1"/>
    </pattern>
  </defs>
  <rect width="1200" height="675" fill="#F7F6F3"/>
  <rect width="1200" height="675" fill="url(#dots)"/>
  <circle cx="930" cy="300" r="250" fill="#E1F3FE"/>
  <circle cx="958" cy="326" r="250" fill="none" stroke="#C4E6F8" stroke-width="7" opacity="0.7"/>
  <circle cx="1092" cy="560" r="46" fill="#C4E6F8" opacity="0.7"/>
  <g transform="rotate(-14 600 364)">
    <path d="M470 300 H716 a30 30 0 0 1 30 30 V468 a30 30 0 0 1 -30 30 H470 L360 399 Z" fill="none" stroke="#2F3437" stroke-width="9" stroke-linejoin="round"/>
    <circle cx="430" cy="399" r="22" fill="none" stroke="#2F3437" stroke-width="9"/>
    <path d="M412 382 C366 342 344 322 300 306" fill="none" stroke="#2F3437" stroke-width="7" stroke-linecap="round"/>
    <text x="566" y="442" font-family="Georgia,'Times New Roman',serif" font-size="150" fill="#DC3626" text-anchor="middle">$</text>
  </g>
  <circle cx="92" cy="90" r="7" fill="#DC3626"/>
  <text x="112" y="100" font-family="Georgia,'Times New Roman',serif" font-size="34" fill="#2F3437">FlyerBoard</text>
  <text x="82" y="598" font-family="'SF Mono',ui-monospace,monospace" font-size="22" letter-spacing="5" fill="#787774">SELLING</text>
  <line x1="82" y1="620" x2="210" y2="620" stroke="#DDDBD4" stroke-width="2"/>
</svg>
